<svg xmlns="http://www.w3.org/2000/svg" xmlns:xlink="http://www.w3.org/1999/xlink" contentStyleType="text/css" data-diagram-type="DESCRIPTION" height="983px" preserveAspectRatio="none" style="width:1727px;height:983px;background:#FFFFFF;" version="1.1" viewBox="0 0 1727 983" width="1727px" zoomAndPan="magnify"><defs/><g><!--cluster GUI--><g id="cluster_GUI"><rect fill="none" height="113.3" rx="2.5" ry="2.5" style="stroke:#181818;stroke-width:1;" width="397" x="473" y="7"/><text fill="#000000" font-family="sans-serif" font-size="14" font-weight="bold" lengthAdjust="spacing" textLength="176.1484" x="583.4258" y="21.9951">Capa de Interfaz (GUI)</text></g><!--cluster Controladores--><g id="cluster_Controladores"><rect fill="none" height="220.59" rx="2.5" ry="2.5" style="stroke:#181818;stroke-width:1;" width="704" x="166" y="185.3"/><text fill="#000000" font-family="sans-serif" font-size="14" font-weight="bold" lengthAdjust="spacing" textLength="180.1475" x="427.9263" y="200.2951">Capa de Controladores</text></g><!--cluster Dominio--><g id="cluster_Dominio"><rect fill="none" height="345.89" rx="2.5" ry="2.5" style="stroke:#181818;stroke-width:1;" width="578" x="1143" y="631.19"/><text fill="#000000" font-family="sans-serif" font-size="14" font-weight="bold" lengthAdjust="spacing" textLength="133.4648" x="1365.2676" y="646.1851">Capa de Dominio</text></g><!--cluster Persistencia--><g id="cluster_Persistencia"><rect fill="none" height="273.6" rx="2.5" ry="2.5" style="stroke:#181818;stroke-width:1;" width="774" x="7" y="470.89"/><text fill="#000000" font-family="sans-serif" font-size="14" font-weight="bold" lengthAdjust="spacing" textLength="165.2793" x="311.3604" y="485.8851">Capa de Persistencia</text></g><!--entity Ventanas y Vistas (Interfaces de Usuario)--><g id="elem_Ventanas y Vistas (Interfaces de Usuario)"><rect fill="#F1F1F1" height="46.2969" rx="2.5" ry="2.5" style="stroke:#181818;stroke-width:0.5;" width="330.1377" x="496.93" y="50"/><rect fill="#F1F1F1" height="10" style="stroke:#181818;stroke-width:0.5;" width="15" x="807.0677" y="55"/><rect fill="#F1F1F1" height="2" style="stroke:#181818;stroke-width:0.5;" width="4" x="805.0677" y="57"/><rect fill="#F1F1F1" height="2" style="stroke:#181818;stroke-width:0.5;" width="4" x="805.0677" y="61"/><text fill="#000000" font-family="sans-serif" font-size="14" lengthAdjust="spacing" textLength="290.1377" x="511.93" y="82.9951">Ventanas y Vistas (Interfaces de Usuario)</text></g><!--entity ControladorActividad--><g id="elem_ControladorActividad"><rect fill="#F1F1F1" height="46.2969" rx="2.5" ry="2.5" style="stroke:#181818;stroke-width:0.5;" width="187.8818" x="190.06" y="228.3"/><rect fill="#F1F1F1" height="10" style="stroke:#181818;stroke-width:0.5;" width="15" x="357.9418" y="233.3"/><rect fill="#F1F1F1" height="2" style="stroke:#181818;stroke-width:0.5;" width="4" x="355.9418" y="235.3"/><rect fill="#F1F1F1" height="2" style="stroke:#181818;stroke-width:0.5;" width="4" x="355.9418" y="239.3"/><text fill="#000000" font-family="sans-serif" font-size="14" lengthAdjust="spacing" textLength="147.8818" x="205.06" y="261.2951">ControladorActividad</text></g><!--entity ControladorEstudiante--><g id="elem_ControladorEstudiante"><rect fill="#F1F1F1" height="46.2969" rx="2.5" ry="2.5" style="stroke:#181818;stroke-width:0.5;" width="197.5342" x="413.23" y="228.3"/><rect fill="#F1F1F1" height="10" style="stroke:#181818;stroke-width:0.5;" width="15" x="590.7642" y="233.3"/><rect fill="#F1F1F1" height="2" style="stroke:#181818;stroke-width:0.5;" width="4" x="588.7642" y="235.3"/><rect fill="#F1F1F1" height="2" style="stroke:#181818;stroke-width:0.5;" width="4" x="588.7642" y="239.3"/><text fill="#000000" font-family="sans-serif" font-size="14" lengthAdjust="spacing" textLength="157.5342" x="428.23" y="261.2951">ControladorEstudiante</text></g><!--entity ControladorProfesor--><g id="elem_ControladorProfesor"><rect fill="#F1F1F1" height="46.2969" rx="2.5" ry="2.5" style="stroke:#181818;stroke-width:0.5;" width="180.6221" x="645.69" y="228.3"/><rect fill="#F1F1F1" height="10" style="stroke:#181818;stroke-width:0.5;" width="15" x="806.3121" y="233.3"/><rect fill="#F1F1F1" height="2" style="stroke:#181818;stroke-width:0.5;" width="4" x="804.3121" y="235.3"/><rect fill="#F1F1F1" height="2" style="stroke:#181818;stroke-width:0.5;" width="4" x="804.3121" y="239.3"/><text fill="#000000" font-family="sans-serif" font-size="14" lengthAdjust="spacing" textLength="140.6221" x="660.69" y="261.2951">ControladorProfesor</text></g><!--entity ControladorLearningPath--><g id="elem_ControladorLearningPath"><rect fill="#F1F1F1" height="46.2969" rx="2.5" ry="2.5" style="stroke:#181818;stroke-width:0.5;" width="215.3555" x="190.32" y="335.6"/><rect fill="#F1F1F1" height="10" style="stroke:#181818;stroke-width:0.5;" width="15" x="385.6755" y="340.6"/><rect fill="#F1F1F1" height="2" style="stroke:#181818;stroke-width:0.5;" width="4" x="383.6755" y="342.6"/><rect fill="#F1F1F1" height="2" style="stroke:#181818;stroke-width:0.5;" width="4" x="383.6755" y="346.6"/><text fill="#000000" font-family="sans-serif" font-size="14" lengthAdjust="spacing" textLength="175.3555" x="205.32" y="368.5951">ControladorLearningPath</text></g><!--entity ControladorRegistros--><g id="elem_ControladorRegistros"><rect fill="#F1F1F1" height="46.2969" rx="2.5" ry="2.5" style="stroke:#181818;stroke-width:0.5;" width="188.2168" x="440.89" y="335.6"/><rect fill="#F1F1F1" height="10" style="stroke:#181818;stroke-width:0.5;" width="15" x="609.1068" y="340.6"/><rect fill="#F1F1F1" height="2" style="stroke:#181818;stroke-width:0.5;" width="4" x="607.1068" y="342.6"/><rect fill="#F1F1F1" height="2" style="stroke:#181818;stroke-width:0.5;" width="4" x="607.1068" y="346.6"/><text fill="#000000" font-family="sans-serif" font-size="14" lengthAdjust="spacing" textLength="148.2168" x="455.89" y="368.5951">ControladorRegistros</text></g><!--entity ControladorResena--><g id="elem_ControladorResena"><rect fill="#F1F1F1" height="46.2969" rx="2.5" ry="2.5" style="stroke:#181818;stroke-width:0.5;" width="174.4014" x="663.8" y="335.6"/><rect fill="#F1F1F1" height="10" style="stroke:#181818;stroke-width:0.5;" width="15" x="818.2014" y="340.6"/><rect fill="#F1F1F1" height="2" style="stroke:#181818;stroke-width:0.5;" width="4" x="816.2014" y="342.6"/><rect fill="#F1F1F1" height="2" style="stroke:#181818;stroke-width:0.5;" width="4" x="816.2014" y="346.6"/><text fill="#000000" font-family="sans-serif" font-size="14" lengthAdjust="spacing" textLength="134.4014" x="678.8" y="368.5951">ControladorResena</text></g><!--entity Actividad--><g id="elem_Actividad"><rect fill="#F1F1F1" height="46.2969" rx="2.5" ry="2.5" style="stroke:#181818;stroke-width:0.5;" width="105.1807" x="1186.41" y="674.19"/><rect fill="#F1F1F1" height="10" style="stroke:#181818;stroke-width:0.5;" width="15" x="1271.5907" y="679.19"/><rect fill="#F1F1F1" height="2" style="stroke:#181818;stroke-width:0.5;" width="4" x="1269.5907" y="681.19"/><rect fill="#F1F1F1" height="2" style="stroke:#181818;stroke-width:0.5;" width="4" x="1269.5907" y="685.19"/><text fill="#000000" font-family="sans-serif" font-size="14" lengthAdjust="spacing" textLength="65.1807" x="1201.41" y="707.1851">Actividad</text></g><!--entity LearningPath--><g id="elem_LearningPath"><rect fill="#F1F1F1" height="46.2969" rx="2.5" ry="2.5" style="stroke:#181818;stroke-width:0.5;" width="132.6543" x="1326.67" y="674.19"/><rect fill="#F1F1F1" height="10" style="stroke:#181818;stroke-width:0.5;" width="15" x="1439.3243" y="679.19"/><rect fill="#F1F1F1" height="2" style="stroke:#181818;stroke-width:0.5;" width="4" x="1437.3243" y="681.19"/><rect fill="#F1F1F1" height="2" style="stroke:#181818;stroke-width:0.5;" width="4" x="1437.3243" y="685.19"/><text fill="#000000" font-family="sans-serif" font-size="14" lengthAdjust="spacing" textLength="92.6543" x="1341.67" y="707.1851">LearningPath</text></g><!--entity Estudiante--><g id="elem_Estudiante"><rect fill="#F1F1F1" height="46.2969" rx="2.5" ry="2.5" style="stroke:#181818;stroke-width:0.5;" width="114.833" x="1494.58" y="674.19"/><rect fill="#F1F1F1" height="10" style="stroke:#181818;stroke-width:0.5;" width="15" x="1589.413" y="679.19"/><rect fill="#F1F1F1" height="2" style="stroke:#181818;stroke-width:0.5;" width="4" x="1587.413" y="681.19"/><rect fill="#F1F1F1" height="2" style="stroke:#181818;stroke-width:0.5;" width="4" x="1587.413" y="685.19"/><text fill="#000000" font-family="sans-serif" font-size="14" lengthAdjust="spacing" textLength="74.833" x="1509.58" y="707.1851">Estudiante</text></g><!--entity Profesor--><g id="elem_Profesor"><rect fill="#F1F1F1" height="46.2969" rx="2.5" ry="2.5" style="stroke:#181818;stroke-width:0.5;" width="97.9209" x="1175.04" y="799.49"/><rect fill="#F1F1F1" height="10" style="stroke:#181818;stroke-width:0.5;" width="15" x="1252.9609" y="804.49"/><rect fill="#F1F1F1" height="2" style="stroke:#181818;stroke-width:0.5;" width="4" x="1250.9609" y="806.49"/><rect fill="#F1F1F1" height="2" style="stroke:#181818;stroke-width:0.5;" width="4" x="1250.9609" y="810.49"/><text fill="#000000" font-family="sans-serif" font-size="14" lengthAdjust="spacing" textLength="57.9209" x="1190.04" y="832.4851">Profesor</text></g><!--entity RegistroActividad--><g id="elem_RegistroActividad"><rect fill="#F1F1F1" height="46.2969" rx="2.5" ry="2.5" style="stroke:#181818;stroke-width:0.5;" width="163.4023" x="1308.3" y="799.49"/><rect fill="#F1F1F1" height="10" style="stroke:#181818;stroke-width:0.5;" width="15" x="1451.7023" y="804.49"/><rect fill="#F1F1F1" height="2" style="stroke:#181818;stroke-width:0.5;" width="4" x="1449.7023" y="806.49"/><rect fill="#F1F1F1" height="2" style="stroke:#181818;stroke-width:0.5;" width="4" x="1449.7023" y="810.49"/><text fill="#000000" font-family="sans-serif" font-size="14" lengthAdjust="spacing" textLength="123.4023" x="1323.3" y="832.4851">RegistroActividad</text></g><!--entity RegistroLearningPath--><g id="elem_RegistroLearningPath"><rect fill="#F1F1F1" height="46.2969" rx="2.5" ry="2.5" style="stroke:#181818;stroke-width:0.5;" width="190.876" x="1506.56" y="799.49"/><rect fill="#F1F1F1" height="10" style="stroke:#181818;stroke-width:0.5;" width="15" x="1677.436" y="804.49"/><rect fill="#F1F1F1" height="2" style="stroke:#181818;stroke-width:0.5;" width="4" x="1675.436" y="806.49"/><rect fill="#F1F1F1" height="2" style="stroke:#181818;stroke-width:0.5;" width="4" x="1675.436" y="810.49"/><text fill="#000000" font-family="sans-serif" font-size="14" lengthAdjust="spacing" textLength="150.876" x="1521.56" y="832.4851">RegistroLearningPath</text></g><!--entity Resena--><g id="elem_Resena"><rect fill="#F1F1F1" height="46.2969" rx="2.5" ry="2.5" style="stroke:#181818;stroke-width:0.5;" width="91.7002" x="1178.15" y="906.78"/><rect fill="#F1F1F1" height="10" style="stroke:#181818;stroke-width:0.5;" width="15" x="1249.8502" y="911.78"/><rect fill="#F1F1F1" height="2" style="stroke:#181818;stroke-width:0.5;" width="4" x="1247.8502" y="913.78"/><rect fill="#F1F1F1" height="2" style="stroke:#181818;stroke-width:0.5;" width="4" x="1247.8502" y="917.78"/><text fill="#000000" font-family="sans-serif" font-size="14" lengthAdjust="spacing" textLength="51.7002" x="1193.15" y="939.7751">Resena</text></g><!--entity Pregunta, Opcion, etc.--><g id="elem_Pregunta, Opcion, etc."><rect fill="#F1F1F1" height="46.2969" rx="2.5" ry="2.5" style="stroke:#181818;stroke-width:0.5;" width="196.4951" x="1304.75" y="906.78"/><rect fill="#F1F1F1" height="10" style="stroke:#181818;stroke-width:0.5;" width="15" x="1481.2451" y="911.78"/><rect fill="#F1F1F1" height="2" style="stroke:#181818;stroke-width:0.5;" width="4" x="1479.2451" y="913.78"/><rect fill="#F1F1F1" height="2" style="stroke:#181818;stroke-width:0.5;" width="4" x="1479.2451" y="917.78"/><text fill="#000000" font-family="sans-serif" font-size="14" lengthAdjust="spacing" textLength="156.4951" x="1319.75" y="939.7751">Pregunta, Opcion, etc.</text></g><!--entity PersistenciaActividades--><g id="elem_PersistenciaActividades"><rect fill="#F1F1F1" height="46.2969" rx="2.5" ry="2.5" style="stroke:#181818;stroke-width:0.5;" width="205.5186" x="31.24" y="513.89"/><rect fill="#F1F1F1" height="10" style="stroke:#181818;stroke-width:0.5;" width="15" x="216.7586" y="518.89"/><rect fill="#F1F1F1" height="2" style="stroke:#181818;stroke-width:0.5;" width="4" x="214.7586" y="520.89"/><rect fill="#F1F1F1" height="2" style="stroke:#181818;stroke-width:0.5;" width="4" x="214.7586" y="524.89"/><text fill="#000000" font-family="sans-serif" font-size="14" lengthAdjust="spacing" textLength="165.5186" x="46.24" y="546.8851">PersistenciaActividades</text></g><!--entity PersistenciaEstudiantes--><g id="elem_PersistenciaEstudiantes"><rect fill="#F1F1F1" height="46.2969" rx="2.5" ry="2.5" style="stroke:#181818;stroke-width:0.5;" width="206.5576" x="271.72" y="513.89"/><rect fill="#F1F1F1" height="10" style="stroke:#181818;stroke-width:0.5;" width="15" x="458.2776" y="518.89"/><rect fill="#F1F1F1" height="2" style="stroke:#181818;stroke-width:0.5;" width="4" x="456.2776" y="520.89"/><rect fill="#F1F1F1" height="2" style="stroke:#181818;stroke-width:0.5;" width="4" x="456.2776" y="524.89"/><text fill="#000000" font-family="sans-serif" font-size="14" lengthAdjust="spacing" textLength="166.5576" x="286.72" y="546.8851">PersistenciaEstudiantes</text></g><!--entity PersistenciaLearningPaths--><g id="elem_PersistenciaLearningPaths"><rect fill="#F1F1F1" height="46.2969" rx="2.5" ry="2.5" style="stroke:#181818;stroke-width:0.5;" width="224.3789" x="512.81" y="513.89"/><rect fill="#F1F1F1" height="10" style="stroke:#181818;stroke-width:0.5;" width="15" x="717.1889" y="518.89"/><rect fill="#F1F1F1" height="2" style="stroke:#181818;stroke-width:0.5;" width="4" x="715.1889" y="520.89"/><rect fill="#F1F1F1" height="2" style="stroke:#181818;stroke-width:0.5;" width="4" x="715.1889" y="524.89"/><text fill="#000000" font-family="sans-serif" font-size="14" lengthAdjust="spacing" textLength="184.3789" x="527.81" y="546.8851">PersistenciaLearningPaths</text></g><!--entity PersistenciaProfesores--><g id="elem_PersistenciaProfesores"><rect fill="#F1F1F1" height="46.2969" rx="2.5" ry="2.5" style="stroke:#181818;stroke-width:0.5;" width="198.2588" x="34.87" y="674.19"/><rect fill="#F1F1F1" height="10" style="stroke:#181818;stroke-width:0.5;" width="15" x="213.1288" y="679.19"/><rect fill="#F1F1F1" height="2" style="stroke:#181818;stroke-width:0.5;" width="4" x="211.1288" y="681.19"/><rect fill="#F1F1F1" height="2" style="stroke:#181818;stroke-width:0.5;" width="4" x="211.1288" y="685.19"/><text fill="#000000" font-family="sans-serif" font-size="14" lengthAdjust="spacing" textLength="158.2588" x="49.87" y="707.1851">PersistenciaProfesores</text></g><!--entity PersistenciaRegistros--><g id="elem_PersistenciaRegistros"><rect fill="#F1F1F1" height="46.2969" rx="2.5" ry="2.5" style="stroke:#181818;stroke-width:0.5;" width="189.9463" x="268.03" y="674.19"/><rect fill="#F1F1F1" height="10" style="stroke:#181818;stroke-width:0.5;" width="15" x="437.9763" y="679.19"/><rect fill="#F1F1F1" height="2" style="stroke:#181818;stroke-width:0.5;" width="4" x="435.9763" y="681.19"/><rect fill="#F1F1F1" height="2" style="stroke:#181818;stroke-width:0.5;" width="4" x="435.9763" y="685.19"/><text fill="#000000" font-family="sans-serif" font-size="14" lengthAdjust="spacing" textLength="149.9463" x="283.03" y="707.1851">PersistenciaRegistros</text></g><!--entity PersistenciaResenias--><g id="elem_PersistenciaResenias"><rect fill="#F1F1F1" height="46.2969" rx="2.5" ry="2.5" style="stroke:#181818;stroke-width:0.5;" width="187.3145" x="493.34" y="674.19"/><rect fill="#F1F1F1" height="10" style="stroke:#181818;stroke-width:0.5;" width="15" x="660.6545" y="679.19"/><rect fill="#F1F1F1" height="2" style="stroke:#181818;stroke-width:0.5;" width="4" x="658.6545" y="681.19"/><rect fill="#F1F1F1" height="2" style="stroke:#181818;stroke-width:0.5;" width="4" x="658.6545" y="685.19"/><text fill="#000000" font-family="sans-serif" font-size="14" lengthAdjust="spacing" textLength="147.3145" x="508.34" y="707.1851">PersistenciaResenias</text></g><!--link GUI to Controladores--><g id="link_GUI_Controladores"><path d="M862,120.8058 C862,121.1042 862,121.4033 862,121.7033 C862,122.3033 862,122.9064 862,123.5126 C862,125.9375 862,128.4112 862,130.9241 C862,140.9756 862,151.6531 862,162.33 C862,167.6684 862,173.0067 862,178.2665 C862,179.5815 862,180.8915 862,182.1954 C862,182.8474 862,183.4978 862,184.1466 C862,184.4709 862,178.7949 862,179.1184 " fill="none" id="GUI-to-Controladores" style="stroke:#181818;stroke-width:1;"/><polygon fill="#181818" points="862,185.1184,866,176.1184,862,180.1184,858,176.1184,862,185.1184" style="stroke:#181818;stroke-width:1;"/><text fill="#000000" font-family="sans-serif" font-size="13" lengthAdjust="spacing" textLength="210.0693" x="863" y="157.3669">Utiliza para realizar operaciones</text></g><!--link Controladores to Dominio--><g id="link_Controladores_Dominio"><path d="M870.4016,252.8797 C870.6376,252.8922 870.8782,252.905 871.1233,252.9181 C871.6137,252.9442 872.1225,252.9714 872.6494,252.9997 C874.7569,253.1129 877.1538,253.2434 879.8186,253.391 C890.4778,253.9818 905.4243,254.8479 923.2911,255.9845 C959.0247,258.2578 1006.4394,261.6131 1054.5988,266.0113 C1150.9175,274.8075 1250.215,287.775 1265,304.6 C1354.72,406.67 1323.56,518.03 1221,607.19 C1200.03,625.42 1178.35,595.25 1159,615.19 C1155.9438,618.3388 1153.5103,621.9148 1151.5937,625.7686 C1151.1145,626.7321 1150.6677,627.7129 1150.2514,628.7087 C1150.0433,629.2066 1149.8429,629.7082 1149.6499,630.2134 C1149.5534,630.4659 1151.5159,625.083 1151.4231,625.3373 " fill="none" id="Controladores-to-Dominio" style="stroke:#181818;stroke-width:1;"/><polygon fill="#181818" points="1149.366,630.9736,1156.2092,623.8905,1151.0802,626.2766,1148.6941,621.1477,1149.366,630.9736" style="stroke:#181818;stroke-width:1;"/><text fill="#000000" font-family="sans-serif" font-size="13" lengthAdjust="spacing" textLength="191.2866" x="1318" y="442.9569">Manipula objetos del dominio</text></g><!--link Controladores to Persistencia--><g id="link_Controladores_Persistencia"><path d="M858.5322,406.7456 C858.3848,407.3177 858.2353,407.8888 858.0835,408.4587 C856.8692,413.0182 855.5125,417.505 854,421.89 C844.015,450.835 824.2375,478.94 806.725,500.02 C797.9688,510.56 789.7788,519.3438 783.6622,525.5981 C782.8976,526.3799 782.1654,527.1222 781.4686,527.8234 C781.3815,527.9111 785.5283,523.7462 785.4423,523.8326 " fill="none" id="Controladores-to-Persistencia" style="stroke:#181818;stroke-width:1;"/><polygon fill="#181818" points="781.209,528.0845,790.3936,524.5289,784.7368,524.5412,784.7244,518.8844,781.209,528.0845" style="stroke:#181818;stroke-width:1;"/><text fill="#000000" font-family="sans-serif" font-size="13" lengthAdjust="spacing" textLength="140.7593" x="868" y="363.3069">Carga y guarda datos</text></g><!--link Persistencia to Dominio--><g id="link_Persistencia_Dominio"><path d="M781.1444,589.4198 C781.193,589.5321 781.2419,589.6443 781.291,589.7563 C781.3894,589.9804 781.4888,590.204 781.5894,590.427 C781.9919,591.3191 782.4125,592.2024 782.8523,593.075 C783.7317,594.8202 784.6874,596.5223 785.7258,598.1655 C787.8025,601.4519 790.21,604.5025 793,607.19 C822.295,635.405 910.63,657.565 992.2175,672.7338 C1033.0113,680.3181 1072.1181,686.1547 1101.3147,690.1264 C1115.913,692.1123 1128.0337,693.6319 1136.6489,694.6707 C1138.8027,694.9304 1134.7782,694.461 1136.4778,694.6604 " fill="none" id="Persistencia-to-Dominio" style="stroke:#181818;stroke-width:1;"/><polygon fill="#181818" points="1142.4369,695.3594,1133.9642,690.3381,1137.471,694.7769,1133.0322,698.2836,1142.4369,695.3594" style="stroke:#181818;stroke-width:1;"/><text fill="#000000" font-family="sans-serif" font-size="13" lengthAdjust="spacing" textLength="418.0249" x="794" y="603.2569">Crea/Recupera objetos del dominio a partir del almacenamiento</text></g><!--SRC=[TLFBJkKm3DtdAomsWCHZVnT8g224nECATDaW5fxM54CQLqcA1AFvTznom_GHiafyx9Dpd3YyiMlHOmCjbczOqttyi0IUoeYkjcJCBfmnrfg1K14KqhJYo4KA_V7KHe4RVYThp4yDx1JO3jcNckUVyHFsBZQN-pk00NG3VmteUdnG6dGQ-u073b4tUzk2yfjz4phqBFjFvb-MlX0NlLYin5COs2UHTCyeU5f6VkSAgwS5T1vYLp6gW2Mszl9CGVmIkIBqZbsznlYoHE-eLcDUGWuAvF0tPsVIi6CPF6ttoStSGaR1mifCVv8rfqhn36MIkwMZkjEtEu3RjcHn1q2nFFhDovfyK5fo9UDWQ1n8hiQn7rcK-ZP6_vlBeMFfEJnr8biyVwuffWrW38DBq__YmyEJsNzRmIQovK-4VgHqYB0_U92MFFQDec2c5Jr7UjyLNAFZjhC8ykULelGpOA7wXZE5apwke41VeyvIhKDJQUTH6SmaPtfReVgExwZiUdMvAs7m4TaFGRIDpgN3XdLivGi0]--></g></svg>