<svg xmlns="http://www.w3.org/2000/svg" xmlns:xlink="http://www.w3.org/1999/xlink" contentStyleType="text/css" data-diagram-type="CLASS" height="379px" preserveAspectRatio="none" style="width:3458px;height:379px;background:#FFFFFF;" version="1.1" viewBox="0 0 3458 379" width="3458px" zoomAndPan="magnify"><defs/><g><!--cluster componentes--><g id="cluster_componentes"><rect fill="none" height="77.3" rx="2.5" ry="2.5" style="stroke:#000000;stroke-width:1.5;" width="545" x="1559" y="295.89"/><text fill="#000000" font-family="sans-serif" font-size="14" font-weight="bold" lengthAdjust="spacing" textLength="106.0938" x="1778.4531" y="310.8851">componentes</text></g><!--cluster controladores--><g id="cluster_controladores"><rect fill="none" height="77.29" rx="2.5" ry="2.5" style="stroke:#000000;stroke-width:1.5;" width="1146" x="1353" y="194.6"/><text fill="#000000" font-family="sans-serif" font-size="14" font-weight="bold" lengthAdjust="spacing" textLength="109.7168" x="1871.1416" y="209.5951">controladores</text></g><!--cluster interfaces--><g id="cluster_interfaces"><rect fill="none" height="163.6" rx="2.5" ry="2.5" style="stroke:#000000;stroke-width:1.5;" width="3445" x="7" y="7"/><text fill="#000000" font-family="sans-serif" font-size="14" font-weight="bold" lengthAdjust="spacing" textLength="79.5225" x="1689.7388" y="21.9951">interfaces</text></g><!--class Actividad--><g id="elem_Actividad"><rect codeLine="7" fill="#F1F1F1" height="26.2969" id="Actividad" rx="2.5" ry="2.5" style="stroke:#181818;stroke-width:0.5;" width="71.1807" x="1674.41" y="330.89"/><text fill="#000000" font-family="sans-serif" font-size="14" lengthAdjust="spacing" textLength="65.1807" x="1677.41" y="348.8851">Actividad</text></g><!--class LearningPath--><g id="elem_LearningPath"><rect codeLine="8" fill="#F1F1F1" height="26.2969" id="LearningPath" rx="2.5" ry="2.5" style="stroke:#181818;stroke-width:0.5;" width="98.6543" x="1896.67" y="330.89"/><text fill="#000000" font-family="sans-serif" font-size="14" lengthAdjust="spacing" textLength="92.6543" x="1899.67" y="348.8851">LearningPath</text></g><!--class Estudiante--><g id="elem_Estudiante"><rect codeLine="9" fill="#F1F1F1" height="26.2969" id="Estudiante" rx="2.5" ry="2.5" style="stroke:#181818;stroke-width:0.5;" width="80.833" x="1780.58" y="330.89"/><text fill="#000000" font-family="sans-serif" font-size="14" lengthAdjust="spacing" textLength="74.833" x="1783.58" y="348.8851">Estudiante</text></g><!--class Profesor--><g id="elem_Profesor"><rect codeLine="10" fill="#F1F1F1" height="26.2969" id="Profesor" rx="2.5" ry="2.5" style="stroke:#181818;stroke-width:0.5;" width="63.9209" x="1575.04" y="330.89"/><text fill="#000000" font-family="sans-serif" font-size="14" lengthAdjust="spacing" textLength="57.9209" x="1578.04" y="348.8851">Profesor</text></g><!--class Resena--><g id="elem_Resena"><rect codeLine="11" fill="#F1F1F1" height="26.2969" id="Resena" rx="2.5" ry="2.5" style="stroke:#181818;stroke-width:0.5;" width="57.7002" x="2030.15" y="330.89"/><text fill="#000000" font-family="sans-serif" font-size="14" lengthAdjust="spacing" textLength="51.7002" x="2033.15" y="348.8851">Resena</text></g><!--class ControladorActividad--><g id="elem_ControladorActividad"><rect codeLine="15" fill="#F1F1F1" height="26.2969" id="ControladorActividad" rx="2.5" ry="2.5" style="stroke:#181818;stroke-width:0.5;" width="153.8818" x="1550.06" y="229.6"/><text fill="#000000" font-family="sans-serif" font-size="14" lengthAdjust="spacing" textLength="147.8818" x="1553.06" y="247.5951">ControladorActividad</text></g><!--class ControladorEstudiante--><g id="elem_ControladorEstudiante"><rect codeLine="16" fill="#F1F1F1" height="26.2969" id="ControladorEstudiante" rx="2.5" ry="2.5" style="stroke:#181818;stroke-width:0.5;" width="163.5342" x="1739.23" y="229.6"/><text fill="#000000" font-family="sans-serif" font-size="14" lengthAdjust="spacing" textLength="157.5342" x="1742.23" y="247.5951">ControladorEstudiante</text></g><!--class ControladorProfesor--><g id="elem_ControladorProfesor"><rect codeLine="17" fill="#F1F1F1" height="26.2969" id="ControladorProfesor" rx="2.5" ry="2.5" style="stroke:#181818;stroke-width:0.5;" width="146.6221" x="1368.69" y="229.6"/><text fill="#000000" font-family="sans-serif" font-size="14" lengthAdjust="spacing" textLength="140.6221" x="1371.69" y="247.5951">ControladorProfesor</text></g><!--class ControladorLearningPath--><g id="elem_ControladorLearningPath"><rect codeLine="18" fill="#F1F1F1" height="26.2969" id="ControladorLearningPath" rx="2.5" ry="2.5" style="stroke:#181818;stroke-width:0.5;" width="181.3555" x="1937.32" y="229.6"/><text fill="#000000" font-family="sans-serif" font-size="14" lengthAdjust="spacing" textLength="175.3555" x="1940.32" y="247.5951">ControladorLearningPath</text></g><!--class ControladorRegistros--><g id="elem_ControladorRegistros"><rect codeLine="19" fill="#F1F1F1" height="26.2969" id="ControladorRegistros" rx="2.5" ry="2.5" style="stroke:#181818;stroke-width:0.5;" width="154.2168" x="2153.89" y="229.6"/><text fill="#000000" font-family="sans-serif" font-size="14" lengthAdjust="spacing" textLength="148.2168" x="2156.89" y="247.5951">ControladorRegistros</text></g><!--class ControladorResena--><g id="elem_ControladorResena"><rect codeLine="20" fill="#F1F1F1" height="26.2969" id="ControladorResena" rx="2.5" ry="2.5" style="stroke:#181818;stroke-width:0.5;" width="140.4014" x="2342.8" y="229.6"/><text fill="#000000" font-family="sans-serif" font-size="14" lengthAdjust="spacing" textLength="134.4014" x="2345.8" y="247.5951">ControladorResena</text></g><!--class VentanaCrearActividad--><g id="elem_VentanaCrearActividad"><rect codeLine="24" fill="#F1F1F1" height="26.2969" id="VentanaCrearActividad" rx="2.5" ry="2.5" style="stroke:#181818;stroke-width:0.5;" width="168.2441" x="581.88" y="42"/><text fill="#000000" font-family="sans-serif" font-size="14" lengthAdjust="spacing" textLength="162.2441" x="584.88" y="59.9951">VentanaCrearActividad</text></g><!--class VentanaCrearLearningPath--><g id="elem_VentanaCrearLearningPath"><rect codeLine="25" fill="#F1F1F1" height="26.2969" id="VentanaCrearLearningPath" rx="2.5" ry="2.5" style="stroke:#181818;stroke-width:0.5;" width="195.7178" x="1717.14" y="42"/><text fill="#000000" font-family="sans-serif" font-size="14" lengthAdjust="spacing" textLength="189.7178" x="1720.14" y="59.9951">VentanaCrearLearningPath</text></g><!--class VentanaCrearResena--><g id="elem_VentanaCrearResena"><rect codeLine="26" fill="#F1F1F1" height="26.2969" id="VentanaCrearResena" rx="2.5" ry="2.5" style="stroke:#181818;stroke-width:0.5;" width="154.7637" x="2693.62" y="42"/><text fill="#000000" font-family="sans-serif" font-size="14" lengthAdjust="spacing" textLength="148.7637" x="2696.62" y="59.9951">VentanaCrearResena</text></g><!--class VentanaEditarLearningPath--><g id="elem_VentanaEditarLearningPath"><rect codeLine="27" fill="#F1F1F1" height="26.2969" id="VentanaEditarLearningPath" rx="2.5" ry="2.5" style="stroke:#181818;stroke-width:0.5;" width="198.6846" x="1483.66" y="42"/><text fill="#000000" font-family="sans-serif" font-size="14" lengthAdjust="spacing" textLength="192.6846" x="1486.66" y="59.9951">VentanaEditarLearningPath</text></g><!--class VentanaElegirActividades--><g id="elem_VentanaElegirActividades"><rect codeLine="28" fill="#F1F1F1" height="26.2969" id="VentanaElegirActividades" rx="2.5" ry="2.5" style="stroke:#181818;stroke-width:0.5;" width="185.5527" x="990.22" y="42"/><text fill="#000000" font-family="sans-serif" font-size="14" lengthAdjust="spacing" textLength="179.5527" x="993.22" y="59.9951">VentanaElegirActividades</text></g><!--class VentanaElegirActividadesPrePost--><g id="elem_VentanaElegirActividadesPrePost"><rect codeLine="29" fill="#F1F1F1" height="26.2969" id="VentanaElegirActividadesPrePost" rx="2.5" ry="2.5" style="stroke:#181818;stroke-width:0.5;" width="238.1553" x="1210.92" y="42"/><text fill="#000000" font-family="sans-serif" font-size="14" lengthAdjust="spacing" textLength="232.1553" x="1213.92" y="59.9951">VentanaElegirActividadesPrePost</text></g><!--class VentanaIngresoProfesor--><g id="elem_VentanaIngresoProfesor"><rect codeLine="30" fill="#F1F1F1" height="26.2969" id="VentanaIngresoProfesor" rx="2.5" ry="2.5" style="stroke:#181818;stroke-width:0.5;" width="174.6221" x="77.69" y="128.3"/><text fill="#000000" font-family="sans-serif" font-size="14" lengthAdjust="spacing" textLength="168.6221" x="80.69" y="146.2951">VentanaIngresoProfesor</text></g><!--class VentanaIngresoProfesorRevisor--><g id="elem_VentanaIngresoProfesorRevisor"><rect codeLine="31" fill="#F1F1F1" height="26.2969" id="VentanaIngresoProfesorRevisor" rx="2.5" ry="2.5" style="stroke:#181818;stroke-width:0.5;" width="226.7529" x="320.62" y="42"/><text fill="#000000" font-family="sans-serif" font-size="14" lengthAdjust="spacing" textLength="220.7529" x="323.62" y="59.9951">VentanaIngresoProfesorRevisor</text></g><!--class VentanaMenuProfesor--><g id="elem_VentanaMenuProfesor"><rect codeLine="32" fill="#F1F1F1" height="26.2969" id="VentanaMenuProfesor" rx="2.5" ry="2.5" style="stroke:#181818;stroke-width:0.5;" width="160.9434" x="2883.53" y="42"/><text fill="#000000" font-family="sans-serif" font-size="14" lengthAdjust="spacing" textLength="154.9434" x="2886.53" y="59.9951">VentanaMenuProfesor</text></g><!--class VentanaMenuProfesorRevisor--><g id="elem_VentanaMenuProfesorRevisor"><rect codeLine="33" fill="#F1F1F1" height="26.2969" id="VentanaMenuProfesorRevisor" rx="2.5" ry="2.5" style="stroke:#181818;stroke-width:0.5;" width="213.0742" x="1947.46" y="42"/><text fill="#000000" font-family="sans-serif" font-size="14" lengthAdjust="spacing" textLength="207.0742" x="1950.46" y="59.9951">VentanaMenuProfesorRevisor</text></g><!--class VentanaProfesoresCreadoresIngreso--><g id="elem_VentanaProfesoresCreadoresIngreso"><rect codeLine="34" fill="#F1F1F1" height="26.2969" id="VentanaProfesoresCreadoresIngreso" rx="2.5" ry="2.5" style="stroke:#181818;stroke-width:0.5;" width="262.3682" x="22.82" y="42"/><text fill="#000000" font-family="sans-serif" font-size="14" lengthAdjust="spacing" textLength="256.3682" x="25.82" y="59.9951">VentanaProfesoresCreadoresIngreso</text></g><!--class VentanaRegistroProfesor--><g id="elem_VentanaRegistroProfesor"><rect codeLine="35" fill="#F1F1F1" height="26.2969" id="VentanaRegistroProfesor" rx="2.5" ry="2.5" style="stroke:#181818;stroke-width:0.5;" width="180.7266" x="304.64" y="128.3"/><text fill="#000000" font-family="sans-serif" font-size="14" lengthAdjust="spacing" textLength="174.7266" x="307.64" y="146.2951">VentanaRegistroProfesor</text></g><!--class VentanaVerActividades--><g id="elem_VentanaVerActividades"><rect codeLine="36" fill="#F1F1F1" height="26.2969" id="VentanaVerActividades" rx="2.5" ry="2.5" style="stroke:#181818;stroke-width:0.5;" width="169.6182" x="785.19" y="42"/><text fill="#000000" font-family="sans-serif" font-size="14" lengthAdjust="spacing" textLength="163.6182" x="788.19" y="59.9951">VentanaVerActividades</text></g><!--class VentanaVerLearningPaths--><g id="elem_VentanaVerLearningPaths"><rect codeLine="37" fill="#F1F1F1" height="26.2969" id="VentanaVerLearningPaths" rx="2.5" ry="2.5" style="stroke:#181818;stroke-width:0.5;" width="188.4785" x="2195.76" y="42"/><text fill="#000000" font-family="sans-serif" font-size="14" lengthAdjust="spacing" textLength="182.4785" x="2198.76" y="59.9951">VentanaVerLearningPaths</text></g><!--class VentanaVerLearningPathsPropios--><g id="elem_VentanaVerLearningPathsPropios"><rect codeLine="38" fill="#F1F1F1" height="26.2969" id="VentanaVerLearningPathsPropios" rx="2.5" ry="2.5" style="stroke:#181818;stroke-width:0.5;" width="239.8779" x="2419.06" y="42"/><text fill="#000000" font-family="sans-serif" font-size="14" lengthAdjust="spacing" textLength="233.8779" x="2422.06" y="59.9951">VentanaVerLearningPathsPropios</text></g><!--class VentanaVerResenas--><g id="elem_VentanaVerResenas"><rect codeLine="39" fill="#F1F1F1" height="26.2969" id="VentanaVerResenas" rx="2.5" ry="2.5" style="stroke:#181818;stroke-width:0.5;" width="147.5244" x="3079.24" y="42"/><text fill="#000000" font-family="sans-serif" font-size="14" lengthAdjust="spacing" textLength="141.5244" x="3082.24" y="59.9951">VentanaVerResenas</text></g><!--class VerEstadisticasLPPropio--><g id="elem_VerEstadisticasLPPropio"><rect codeLine="40" fill="#F1F1F1" height="26.2969" id="VerEstadisticasLPPropio" rx="2.5" ry="2.5" style="stroke:#181818;stroke-width:0.5;" width="173.5215" x="3262.24" y="42"/><text fill="#000000" font-family="sans-serif" font-size="14" lengthAdjust="spacing" textLength="167.5215" x="3265.24" y="59.9951">VerEstadisticasLPPropio</text></g><!--link VentanaCrearActividad to ControladorActividad--><g id="link_VentanaCrearActividad_ControladorActividad"><path codeLine="46" d="M711.55,68.73 C762.96,82.98 849.08,106.99 923,128.3 C998.71,150.13 1015.13,166.59 1093,178.6 C1141.33,186.04 1485.93,173.35 1533,186.6 C1563.23,195.11 1589.0004,212.1429 1606.7504,225.6129 " fill="none" id="VentanaCrearActividad-to-ControladorActividad" style="stroke:#181818;stroke-width:1;"/><polygon fill="#181818" points="1611.53,229.24,1606.7787,220.613,1607.547,226.2174,1601.9426,226.9858,1611.53,229.24" style="stroke:#181818;stroke-width:1;"/></g><!--link VentanaCrearLearningPath to ControladorLearningPath--><g id="link_VentanaCrearLearningPath_ControladorLearningPath"><path codeLine="47" d="M1829.31,68.62 C1868.11,102.43 1970.5059,191.6488 2009.2359,225.3888 " fill="none" id="VentanaCrearLearningPath-to-ControladorLearningPath" style="stroke:#181818;stroke-width:1;"/><polygon fill="#181818" points="2013.76,229.33,2009.6014,220.4022,2009.9899,226.0457,2004.3465,226.4343,2013.76,229.33" style="stroke:#181818;stroke-width:1;"/></g><!--link VentanaCrearLearningPath to ControladorActividad--><g id="link_VentanaCrearLearningPath_ControladorActividad"><path codeLine="48" d="M1802.37,68.62 C1768.12,102.43 1678.0307,191.3756 1643.8407,225.1156 " fill="none" id="VentanaCrearLearningPath-to-ControladorActividad" style="stroke:#181818;stroke-width:1;"/><polygon fill="#181818" points="1639.57,229.33,1648.7856,225.8554,1643.1289,225.818,1643.1663,220.1612,1639.57,229.33" style="stroke:#181818;stroke-width:1;"/></g><!--link VentanaCrearResena to ControladorResena--><g id="link_VentanaCrearResena_ControladorResena"><path codeLine="49" d="M2756.96,68.55 C2729.04,92.67 2663.78,146.38 2601,178.6 C2556.74,201.31 2508.3253,216.9094 2469.5153,227.5794 " fill="none" id="VentanaCrearResena-to-ControladorResena" style="stroke:#181818;stroke-width:1;"/><polygon fill="#181818" points="2463.73,229.17,2473.4684,230.6411,2468.5511,227.8445,2471.3476,222.9273,2463.73,229.17" style="stroke:#181818;stroke-width:1;"/></g><!--link VentanaCrearResena to ControladorActividad--><g id="link_VentanaCrearResena_ControladorActividad"><path codeLine="50" d="M2693.18,67.8 C2532.44,91.52 2151.91,145.95 1831,178.6 C1782.67,183.51 1768.41,172.26 1722,186.6 C1691.94,195.88 1666.0059,212.5721 1647.9259,225.7721 " fill="none" id="VentanaCrearResena-to-ControladorActividad" style="stroke:#181818;stroke-width:1;"/><polygon fill="#181818" points="1643.08,229.31,1652.7075,227.2337,1647.1183,226.3617,1647.9902,220.7725,1643.08,229.31" style="stroke:#181818;stroke-width:1;"/></g><!--link VentanaEditarLearningPath to ControladorLearningPath--><g id="link_VentanaEditarLearningPath_ControladorLearningPath"><path codeLine="51" d="M1612.74,68.74 C1667.76,91.84 1789.39,141.97 1894,178.6 C1905.41,182.59 1908.8,182.05 1920,186.6 C1950.83,199.1 1979.5037,214.2506 2000.9537,226.2506 " fill="none" id="VentanaEditarLearningPath-to-ControladorLearningPath" style="stroke:#181818;stroke-width:1;"/><polygon fill="#181818" points="2006.19,229.18,2000.2885,221.2951,2001.8264,226.7388,1996.3826,228.2768,2006.19,229.18" style="stroke:#181818;stroke-width:1;"/></g><!--link VentanaEditarLearningPath to ControladorActividad--><g id="link_VentanaEditarLearningPath_ControladorActividad"><path codeLine="52" d="M1585.96,68.62 C1593.97,102.43 1614.6757,189.7519 1622.6757,223.4919 " fill="none" id="VentanaEditarLearningPath-to-ControladorActividad" style="stroke:#181818;stroke-width:1;"/><polygon fill="#181818" points="1624.06,229.33,1625.8757,219.65,1622.9064,224.4649,1618.0915,221.4956,1624.06,229.33" style="stroke:#181818;stroke-width:1;"/></g><!--link VentanaElegirActividades to ControladorActividad--><g id="link_VentanaElegirActividades_ControladorActividad"><path codeLine="53" d="M1135.67,68.79 C1186.98,81.69 1266.86,103.32 1334,128.3 C1384.01,146.9 1391.45,164.85 1443,178.6 C1481.8,188.94 1494.75,174.36 1533,186.6 C1562.55,196.05 1587.9795,212.4746 1605.9195,225.6146 " fill="none" id="VentanaElegirActividades-to-ControladorActividad" style="stroke:#181818;stroke-width:1;"/><polygon fill="#181818" points="1610.76,229.16,1605.8629,220.6149,1606.7263,226.2055,1601.1357,227.0689,1610.76,229.16" style="stroke:#181818;stroke-width:1;"/></g><!--link VentanaElegirActividadesPrePost to ControladorActividad--><g id="link_VentanaElegirActividadesPrePost_ControladorActividad"><path codeLine="54" d="M1349.95,68.62 C1404.05,102.43 1548.0516,192.4107 1602.0516,226.1507 " fill="none" id="VentanaElegirActividadesPrePost-to-ControladorActividad" style="stroke:#181818;stroke-width:1;"/><polygon fill="#181818" points="1607.14,229.33,1601.6269,221.1688,1602.8997,226.6806,1597.3878,227.9533,1607.14,229.33" style="stroke:#181818;stroke-width:1;"/></g><!--link VentanaIngresoProfesor to ControladorProfesor--><g id="link_VentanaIngresoProfesor_ControladorProfesor"><path codeLine="55" d="M199.72,155.1 C223.86,163.3 256.96,173.4 287,178.6 C496.26,214.81 1142.112,234.1353 1362.402,239.8153 " fill="none" id="VentanaIngresoProfesor-to-ControladorProfesor" style="stroke:#181818;stroke-width:1;"/><polygon fill="#181818" points="1368.4,239.97,1359.5061,235.7393,1363.4017,239.8411,1359.2999,243.7367,1368.4,239.97" style="stroke:#181818;stroke-width:1;"/></g><!--link VentanaIngresoProfesorRevisor to ControladorProfesor--><g id="link_VentanaIngresoProfesorRevisor_ControladorProfesor"><path codeLine="56" d="M476.09,68.71 C559.74,93.23 753.15,147.78 919,178.6 C1077.93,208.13 1260.7326,226.4596 1362.3826,235.3096 " fill="none" id="VentanaIngresoProfesorRevisor-to-ControladorProfesor" style="stroke:#181818;stroke-width:1;"/><polygon fill="#181818" points="1368.36,235.83,1359.7409,231.0645,1363.3788,235.3963,1359.047,239.0343,1368.36,235.83" style="stroke:#181818;stroke-width:1;"/></g><!--link VentanaMenuProfesor to ControladorActividad--><g id="link_VentanaMenuProfesor_ControladorActividad"><path codeLine="57" d="M2891.6,68.79 C2738.98,94.81 2372.81,153.99 2063,178.6 C2025.22,181.6 1758.48,176.32 1722,186.6 C1691.53,195.18 1665.4326,212.2234 1647.4726,225.6734 " fill="none" id="VentanaMenuProfesor-to-ControladorActividad" style="stroke:#181818;stroke-width:1;"/><polygon fill="#181818" points="1642.67,229.27,1652.2716,227.0768,1646.6721,226.2729,1647.4761,220.6734,1642.67,229.27" style="stroke:#181818;stroke-width:1;"/></g><!--link VentanaMenuProfesor to ControladorLearningPath--><g id="link_VentanaMenuProfesor_ControladorLearningPath"><path codeLine="58" d="M2950.01,68.66 C2917.39,97.5 2836.54,167.07 2803,178.6 C2767.95,190.64 2171.98,177.71 2136,186.6 C2102.07,194.97 2071.7487,212.3817 2051.0987,225.9117 " fill="none" id="VentanaMenuProfesor-to-ControladorLearningPath" style="stroke:#181818;stroke-width:1;"/><polygon fill="#181818" points="2046.08,229.2,2055.8002,227.6134,2050.2622,226.4598,2051.4159,220.9218,2046.08,229.2" style="stroke:#181818;stroke-width:1;"/></g><!--link VentanaMenuProfesor to ControladorResena--><g id="link_VentanaMenuProfesor_ControladorResena"><path codeLine="59" d="M2959.95,68.41 C2950.88,93.79 2926.31,151.91 2884,178.6 C2818.84,219.69 2604.0944,234.1701 2489.4444,239.1401 " fill="none" id="VentanaMenuProfesor-to-ControladorResena" style="stroke:#181818;stroke-width:1;"/><polygon fill="#181818" points="2483.45,239.4,2492.6148,243.0065,2488.4453,239.1835,2492.2683,235.014,2483.45,239.4" style="stroke:#181818;stroke-width:1;"/></g><!--link VentanaMenuProfesorRevisor to ControladorActividad--><g id="link_VentanaMenuProfesorRevisor_ControladorActividad"><path codeLine="60" d="M2021.42,68.8 C1940.59,100.2 1736.29,179.69 1722,186.6 C1695.04,199.62 1670.5056,214.2261 1651.6256,226.0461 " fill="none" id="VentanaMenuProfesorRevisor-to-ControladorActividad" style="stroke:#181818;stroke-width:1;"/><polygon fill="#181818" points="1646.54,229.23,1656.2909,227.8446,1650.778,226.5768,1652.0458,221.0638,1646.54,229.23" style="stroke:#181818;stroke-width:1;"/></g><!--link VentanaMenuProfesorRevisor to ControladorLearningPath--><g id="link_VentanaMenuProfesorRevisor_ControladorLearningPath"><path codeLine="61" d="M2052.25,68.62 C2047.52,102.43 2035.303,189.6481 2030.573,223.3881 " fill="none" id="VentanaMenuProfesorRevisor-to-ControladorLearningPath" style="stroke:#181818;stroke-width:1;"/><polygon fill="#181818" points="2029.74,229.33,2034.9508,220.9725,2030.4342,224.3784,2027.0282,219.8618,2029.74,229.33" style="stroke:#181818;stroke-width:1;"/></g><!--link VentanaMenuProfesorRevisor to ControladorResena--><g id="link_VentanaMenuProfesorRevisor_ControladorResena"><path codeLine="62" d="M2083.15,68.77 C2133.56,90.89 2239.88,138.87 2326,186.6 C2350.4,200.12 2372.3848,214.3012 2389.7348,225.9212 " fill="none" id="VentanaMenuProfesorRevisor-to-ControladorResena" style="stroke:#181818;stroke-width:1;"/><polygon fill="#181818" points="2394.72,229.26,2389.468,220.9283,2390.5657,226.4777,2385.0163,227.5753,2394.72,229.26" style="stroke:#181818;stroke-width:1;"/></g><!--link VentanaProfesoresCreadoresIngreso to VentanaIngresoProfesor--><g id="link_VentanaProfesoresCreadoresIngreso_VentanaIngresoProfesor"><path codeLine="63" d="M155.62,68.59 C157.7,84.53 160.5146,106.0503 162.5946,122.0103 " fill="none" id="VentanaProfesoresCreadoresIngreso-to-VentanaIngresoProfesor" style="stroke:#181818;stroke-width:1;"/><polygon fill="#181818" points="163.37,127.96,166.1734,118.5185,162.7238,123.0019,158.2404,119.5524,163.37,127.96" style="stroke:#181818;stroke-width:1;"/></g><!--link VentanaProfesoresCreadoresIngreso to VentanaRegistroProfesor--><g id="link_VentanaProfesoresCreadoresIngreso_VentanaRegistroProfesor"><path codeLine="64" d="M190.08,68.77 C235.64,84.71 307.9063,109.9896 353.4063,125.8996 " fill="none" id="VentanaProfesoresCreadoresIngreso-to-VentanaRegistroProfesor" style="stroke:#181818;stroke-width:1;"/><polygon fill="#181818" points="359.07,127.88,351.8947,121.1335,354.3502,126.2296,349.2541,128.6852,359.07,127.88" style="stroke:#181818;stroke-width:1;"/></g><!--link VentanaRegistroProfesor to ControladorProfesor--><g id="link_VentanaRegistroProfesor_ControladorProfesor"><path codeLine="65" d="M485.63,151.04 C689.68,170.39 1175.8768,216.5033 1362.5568,234.2133 " fill="none" id="VentanaRegistroProfesor-to-ControladorProfesor" style="stroke:#181818;stroke-width:1;"/><polygon fill="#181818" points="1368.53,234.78,1359.948,229.9479,1363.5523,234.3078,1359.1925,237.9121,1368.53,234.78" style="stroke:#181818;stroke-width:1;"/></g><!--link VentanaVerActividades to ControladorActividad--><g id="link_VentanaVerActividades_ControladorActividad"><path codeLine="66" d="M906.39,68.79 C983.4,94.89 1169.02,154.3 1330,178.6 C1374.64,185.33 1489.67,173.9 1533,186.6 C1562.96,195.37 1588.5506,212.1491 1606.3706,225.5191 " fill="none" id="VentanaVerActividades-to-ControladorActividad" style="stroke:#181818;stroke-width:1;"/><polygon fill="#181818" points="1611.17,229.12,1606.3715,220.5191,1607.1705,226.1193,1601.5704,226.9183,1611.17,229.12" style="stroke:#181818;stroke-width:1;"/></g><!--link VentanaVerLearningPaths to ControladorLearningPath--><g id="link_VentanaVerLearningPaths_ControladorLearningPath"><path codeLine="67" d="M2272.4,68.62 C2224.67,102.43 2098.0564,192.1222 2050.4164,225.8622 " fill="none" id="VentanaVerLearningPaths-to-ControladorLearningPath" style="stroke:#181818;stroke-width:1;"/><polygon fill="#181818" points="2045.52,229.33,2055.1764,227.3926,2049.6003,226.4402,2050.5527,220.8641,2045.52,229.33" style="stroke:#181818;stroke-width:1;"/></g><!--link VentanaVerLearningPathsPropios to ControladorLearningPath--><g id="link_VentanaVerLearningPathsPropios_ControladorLearningPath"><path codeLine="68" d="M2506.51,68.78 C2443.67,92.83 2300.76,145.75 2177,178.6 C2159.06,183.36 2153.55,180.54 2136,186.6 C2103.96,197.66 2074.6606,213.5592 2053.5006,226.1092 " fill="none" id="VentanaVerLearningPathsPropios-to-ControladorLearningPath" style="stroke:#181818;stroke-width:1;"/><polygon fill="#181818" points="2048.34,229.17,2058.1214,228.0193,2052.6405,226.6194,2054.0404,221.1385,2048.34,229.17" style="stroke:#181818;stroke-width:1;"/></g><!--link VentanaVerResenas to ControladorResena--><g id="link_VentanaVerResenas_ControladorResena"><path codeLine="69" d="M3136.02,68.61 C3100.32,94.1 3013.99,152.01 2932,178.6 C2777.44,228.7 2591.2788,239.4902 2489.6688,241.5202 " fill="none" id="VentanaVerResenas-to-ControladorResena" style="stroke:#181818;stroke-width:1;"/><polygon fill="#181818" points="2483.67,241.64,2492.7481,245.4594,2488.669,241.5401,2492.5883,237.461,2483.67,241.64" style="stroke:#181818;stroke-width:1;"/></g><!--link ControladorActividad to Actividad--><g id="link_ControladorActividad_Actividad"><path codeLine="75" d="M1637.51,256.32 C1653.48,275.42 1679.8127,306.9258 1695.7227,325.9658 " fill="none" id="ControladorActividad-to-Actividad" style="stroke:#181818;stroke-width:1;"/><polygon fill="#181818" points="1699.57,330.57,1696.8685,321.0989,1696.3639,326.7332,1690.7296,326.2286,1699.57,330.57" style="stroke:#181818;stroke-width:1;"/></g><!--link ControladorEstudiante to Estudiante--><g id="link_ControladorEstudiante_Estudiante"><path codeLine="76" d="M1821,256.32 C1821,275.42 1821,305.53 1821,324.57 " fill="none" id="ControladorEstudiante-to-Estudiante" style="stroke:#181818;stroke-width:1;"/><polygon fill="#181818" points="1821,330.57,1825,321.57,1821,325.57,1817,321.57,1821,330.57" style="stroke:#181818;stroke-width:1;"/></g><!--link ControladorProfesor to Profesor--><g id="link_ControladorProfesor_Profesor"><path codeLine="77" d="M1462.9,256.32 C1494.55,275.37 1549.1693,308.2359 1580.8693,327.3159 " fill="none" id="ControladorProfesor-to-Profesor" style="stroke:#181818;stroke-width:1;"/><polygon fill="#181818" points="1586.01,330.41,1580.3618,322.3417,1581.7261,327.8316,1576.2363,329.1959,1586.01,330.41" style="stroke:#181818;stroke-width:1;"/></g><!--link ControladorLearningPath to LearningPath--><g id="link_ControladorLearningPath_LearningPath"><path codeLine="78" d="M2017.61,256.32 C2001.84,275.42 1975.84,306.9032 1960.12,325.9432 " fill="none" id="ControladorLearningPath-to-LearningPath" style="stroke:#181818;stroke-width:1;"/><polygon fill="#181818" points="1956.3,330.57,1965.1146,326.1765,1959.4834,326.7143,1958.9455,321.0831,1956.3,330.57" style="stroke:#181818;stroke-width:1;"/></g><!--link ControladorResena to Resena--><g id="link_ControladorResena_Resena"><path codeLine="79" d="M2386,256.29 C2369.03,263.84 2346.54,273.24 2326,279.89 C2241.25,307.32 2143.7459,327.2572 2094.1559,336.6172 " fill="none" id="ControladorResena-to-Resena" style="stroke:#181818;stroke-width:1;"/><polygon fill="#181818" points="2088.26,337.73,2097.8457,339.9913,2093.1732,336.8026,2096.362,332.1301,2088.26,337.73" style="stroke:#181818;stroke-width:1;"/></g><!--SRC=[bLPDRzim3BtxLn2zzDBq1-GmO2Xo2D0DHZRqpicCBTIM34b94GpxxwCT9vPjoNPo2IA-nuydab4XCuAAgZzaR58qFuGqegGaiPzIrMYmWXh59-RqorrA0aF2eSeRH7SEJq9NjLQa7Dad-9i0VqI9ri9tuUHPPfXvP- -4HacLf-WAxtXdtIcJo3wymzJe8rbjlAC3MLAO_1k4Lyxe4ZDjnWcyzQPGBfuv6D-p1rBnh96YFCI1ScdvXusP9sL9piKSKOnh-c2XKU6RuPYXednx92yVqaMU67UPT4iETYLNrIT1TWKaDPHgwwR8lShv_dH0w33WG6SPnFqWTOfxyQrH5pS0sKQZjh6ww5FixMRZ8JzeNYEs-pglG72iMkemy7gXGrlJtfXncbAWVK-lzARRdZV1J_BCWrQYarhPGjPs2_jxDuBJjyujcwqHSn7iKzXileMdCjQsOyQW8zUImc6kIesntK0i0oTEfoEp9lbbrZJGUAWUPtHZk4WS3TqOVs_wsHbTOlapkPZH73Yaxnn-UDU1rV1GDX7EKb8HsZ2t-4PgUP4T-X1viiWYvqktELntYmgETziQ-IBxS2Mrsv0HmMTsubvbida0GQOhb8eVGzwEdE5vwv8vHpAa1DsSj3kQx3O9YTJcs4iMVB2q6E_z4hYQ5dA_fuX2BMWWsKIS5dBN2NvgHrluNH3qZvLRFLmUACrIjOgL5wXGoVh4WeqhVssLjOuxymLSGHVW1sLrKlnVnTYpH12zVgySJh9pYNdpDhM5_cBbWRyQQfy7b7WX0ndLf38BMlbENk2haA9WDBYJKHsg0Oqo-my0]--></g></svg>